<?xml version="1.0" encoding="utf-8"?>
<svg xmlns="http://www.w3.org/2000/svg" viewBox="0 0 500 500" style="" xmlns:bx="https://boxy-svg.com" width="500px" height="500px"><defs><filter id="blur-filter-0" x="-50%" y="-50%" width="200%" height="200%" primitiveUnits="userSpaceOnUse" filterUnits="objectBoundingBox" display="flex" fill="inherit" filter="blur(10px)" opacity="0.75"><title>Frosted Glass Blur</title><feGaussianBlur stdDeviation="5" edgeMode="none" in="SourceGraphic" result="gaussian-blur-0"/></filter><filter id="filter-0" bx:pinned="true" primitiveUnits="objectBoundingBox" x="0%" y="0%"><title>Frosted Glass</title><feFlood result="flood-0" style="flood-color: rgb(255, 255, 255);"/><feSpecularLighting result="specular-lighting-0" in="none" specularConstant="6" specularExponent="30" surfaceScale="0" lighting-color="#ffffff"><fePointLight x="0.5" y="0.5" z="0.5"/></feSpecularLighting><feComposite result="composite-0" in="SourceGraphic" in2="specular-lighting-0" operator="in"/></filter><bx:export><bx:file format="svg" path="Blur.svg"/><bx:file format="svg" href="#object-1"/><bx:file format="svg" href="#object-2" path="Untitled 2.svg"/></bx:export></defs><rect x="110.636" y="108.854" width="221.603" height="221.603" style="fill: rgb(253, 76, 76); filter: none;" id="object-0"/><path d="M 113.372 111.459 L 236.241 111.459 C 242.301 123.983 245.699 138.035 245.699 152.881 C 245.699 205.465 203.072 248.092 150.488 248.092 C 137.321 248.092 124.778 245.419 113.372 240.586 L 113.372 111.459 Z" style="fill: rgb(253, 76, 76); filter: url(&quot;#blur-filter-0&quot;);" id="rect-1"/><rect x="67.939" y="67.939" width="364.123" height="364.123" style="fill: rgb(0, 3, 47);" rx="46.689" ry="46.689"/><rect y="93.888" width="85.958" height="241.337" style="transform-origin: 470.3px 214.556px; fill: rgb(31, 151, 74);" rx="41.867" ry="41.867" x="427.321" transform="matrix(0.866025, -0.5, 0.5, 0.866025, -151.193234, 67.659399)"/><rect x="100" y="172.715" width="83.734" height="221.977" style="fill: rgb(33, 235, 106);" rx="41.867" ry="41.867" id="object-2"/><ellipse style="fill: rgb(216, 216, 216); filter: url(&quot;#filter-0&quot;); stroke: rgba(0, 0, 0, 0.5); stroke-opacity: 0.5;" cx="216.829" cy="194.221" rx="81.321" ry="81.321"/><path d="M 298.121 194.2 C 298.121 239.112 261.712 275.521 216.8 275.521 C 171.888 275.521 135.479 239.112 135.479 194.2 C 135.479 149.288 171.888 112.879 216.8 112.879 C 261.712 112.879 298.121 149.288 298.121 194.2 Z" style="fill: rgb(0, 3, 47); filter: url(&quot;#blur-filter-0&quot;);" id="object-1"/><path d="M 257.858 178.245 L 259.784 177.133 C 271.143 170.575 284.297 169.945 295.664 174.282 C 297.269 180.656 298.122 187.328 298.121 194.2 C 298.121 223.702 282.411 249.533 258.902 263.788 L 242.533 235.437 C 230.972 215.412 237.833 189.807 257.858 178.245 Z" style="filter: url(&quot;#blur-filter-0&quot;); fill: rgb(31, 151, 74);"/><path d="M 141.867 172.7 C 164.99 172.7 183.734 191.444 183.734 214.567 L 183.734 268.517 C 155.301 255.847 135.479 227.338 135.479 194.2 C 135.479 186.811 136.464 179.653 138.311 172.849 C 139.483 172.75 140.669 172.7 141.867 172.7 Z" style="filter: url(&quot;#blur-filter-0&quot;); fill: rgb(33, 235, 106);"/></svg>